<svg width="27" height="20" viewBox="0 0 27 20" fill="none" xmlns="http://www.w3.org/2000/svg">
<path fill-rule="evenodd" clip-rule="evenodd" d="M17.999 14.8151C17.45 14.1413 16.5584 13.1651 15.7951 13.0726C15.3308 13.0163 14.7971 13.3913 14.2712 13.7451C14.1685 13.7951 13.3758 14.2551 13.2796 14.2826C12.7716 14.4238 11.6876 14.4651 11.0321 13.8826C10.4009 13.3201 9.40292 12.2788 8.59732 11.3251C7.82764 10.3426 7.02075 9.16133 6.60769 8.43633C6.17667 7.68508 6.48711 6.69133 6.75393 6.25383C6.80268 6.17508 7.39277 5.58383 7.5249 5.44633L7.54414 5.46883C8.03289 5.06883 8.54473 4.66258 8.60245 4.22258C8.69738 3.49008 7.92898 2.42383 7.37994 1.74883C6.8309 1.07258 5.9804 -0.111171 4.82202 0.0563291C4.38587 0.118829 4.01001 0.267579 3.63928 0.481329L3.62902 0.470079L3.56744 0.516329L3.53537 0.532579L3.53922 0.537579C3.32627 0.697579 2.71822 1.14008 2.64895 1.20008C1.89723 1.85133 0.765794 3.38508 1.64067 6.14383C2.28977 8.19383 3.67391 10.6013 5.55964 13.0363L5.54938 13.0451C5.64174 13.1626 5.73666 13.2688 5.83288 13.3826C5.92267 13.4988 6.01119 13.6138 6.10355 13.7288L6.11638 13.7201C8.11755 16.0688 10.2162 17.9463 12.1314 19.0538C14.7099 20.5438 16.543 19.8726 17.3897 19.3388C17.4692 19.2876 18.0747 18.8288 18.2799 18.6776L18.2851 18.6826C18.2928 18.6751 18.2979 18.6651 18.3082 18.6576C18.3267 18.644 18.345 18.6302 18.3633 18.6163L18.3556 18.6063C18.6661 18.3138 18.9149 18.0013 19.0868 17.6076C19.5371 16.5713 18.548 15.4913 17.999 14.8151V14.8151Z" fill="#EB242A"/>
<path d="M14 7.03679C14 6.85408 14.066 6.67755 14.1858 6.53984C14.3057 6.40214 14.4712 6.31258 14.6518 6.28774L14.7544 6.28068L23.4251 6.28169L20.4378 3.29151C20.3096 3.16355 20.2316 2.9937 20.2179 2.81289C20.2042 2.63209 20.2559 2.45239 20.3633 2.30654L20.4358 2.22186C20.5635 2.09354 20.7331 2.01552 20.9135 2.00201C21.0938 1.9885 21.2731 2.04041 21.4185 2.14827L21.5029 2.22085L25.7777 6.49844L25.8411 6.56901L25.9004 6.66176L25.9215 6.69805L25.9598 6.78979L25.9899 6.91077L25.998 6.98134L26 7.04183C25.9999 7.09266 25.9945 7.14334 25.9839 7.19305L25.9608 7.27572C25.9298 7.37116 25.8799 7.45931 25.8139 7.53482L21.504 11.8598C21.3695 11.9954 21.1888 12.075 20.9982 12.0824C20.8076 12.0899 20.6213 12.0247 20.4767 11.9C20.3321 11.7753 20.24 11.6003 20.219 11.4103C20.198 11.2202 20.2496 11.0293 20.3633 10.8758L20.4368 10.7911L23.4211 7.79391L14.7544 7.79391C14.5543 7.79391 14.3624 7.71425 14.2209 7.57245C14.0795 7.43065 14 7.23732 14 7.03679Z" fill="#EB242A" stroke="#EB242A" stroke-width="0.75"/>
</svg>
