<svg width="23" height="27" viewBox="0 0 23 27" fill="none" xmlns="http://www.w3.org/2000/svg">
<path fill-rule="evenodd" clip-rule="evenodd" d="M21.2844 19.5368C20.6047 18.6706 19.5008 17.4154 18.5558 17.2965C17.9809 17.2241 17.3202 17.7063 16.669 18.1611C16.542 18.2254 15.5604 18.8168 15.4413 18.8522C14.8124 19.0338 13.4703 19.0868 12.6587 18.3379C11.8773 17.6147 10.6417 16.2759 9.64426 15.0497C8.69132 13.7865 7.69232 12.2677 7.18091 11.3356C6.64726 10.3697 7.03161 9.09199 7.36197 8.52949C7.42232 8.42824 8.15291 7.66807 8.3165 7.49128L8.34032 7.52021C8.94544 7.00592 9.57914 6.4836 9.65061 5.91789C9.76814 4.9761 8.81679 3.60521 8.13702 2.73735C7.45726 1.86789 6.40426 0.345923 4.97008 0.56128C4.43008 0.641637 3.96473 0.832887 3.50573 1.10771L3.49303 1.09324L3.41679 1.15271L3.37708 1.1736L3.38185 1.18003C3.1182 1.38574 2.36538 1.95467 2.27961 2.03182C1.34891 2.86914 -0.0519149 4.8411 1.03126 8.38807C1.83491 11.0238 3.54861 14.1191 5.88332 17.2498L5.87061 17.2611C5.98497 17.4122 6.1025 17.5488 6.22161 17.695C6.33279 17.8445 6.44238 17.9923 6.55673 18.1402L6.57261 18.129C9.05026 21.1488 11.6486 23.5627 14.0198 24.9866C17.2122 26.9023 19.4818 26.0393 20.53 25.3531C20.6285 25.2872 21.3781 24.6974 21.6323 24.5029L21.6386 24.5093C21.6481 24.4997 21.6545 24.4868 21.6672 24.4772C21.6901 24.4597 21.7129 24.442 21.7355 24.4241L21.726 24.4113C22.1103 24.0352 22.4184 23.6334 22.6313 23.1272C23.1887 21.7949 21.9642 20.4063 21.2844 19.5368Z" fill="white"/>
</svg>
