<svg width="24" height="28" viewBox="0 0 24 28" fill="none" xmlns="http://www.w3.org/2000/svg">
<path d="M21.7895 25.0929C22.1575 25.0935 22.5116 25.2337 22.7803 25.4853C23.049 25.7368 23.2122 26.0809 23.2371 26.4481C23.2619 26.8153 23.1465 27.1783 22.9142 27.4637C22.6818 27.7492 22.3498 27.9358 21.9852 27.986L21.7895 27.9995H1.45286C1.08465 27.9994 0.7302 27.8595 0.461143 27.6082C0.192086 27.3568 0.0284797 27.0126 0.0033821 26.6453C-0.0217155 26.2779 0.0935673 25.9147 0.325936 25.6291C0.558305 25.3435 0.890433 25.1567 1.25521 25.1065L1.45286 25.0929H21.7895ZM11.6338 0.0466932C11.985 0.046708 12.3243 0.173892 12.5889 0.404724C12.8536 0.635556 13.0257 0.954422 13.0735 1.30235L13.0871 1.5L13.0851 18.2042L18.8325 12.4492C19.0784 12.2022 19.4049 12.0519 19.7524 12.0256C20.0999 11.9993 20.4453 12.0987 20.7256 12.3058L20.8884 12.4453C21.1351 12.6915 21.285 13.0181 21.311 13.3656C21.337 13.7131 21.2372 14.0584 21.0299 14.3385L20.8904 14.5012L12.6685 22.7366L12.5329 22.8587L12.3546 22.973L12.2848 23.0137L12.1085 23.0874L11.876 23.1455L11.7403 23.161L11.6241 23.1649C11.5264 23.1647 11.429 23.1543 11.3334 23.1339L11.1745 23.0893C10.9911 23.0297 10.8216 22.9334 10.6765 22.8064L2.3636 14.5032C2.1029 14.2442 1.94999 13.896 1.93566 13.5288C1.92133 13.1616 2.04663 12.8026 2.28635 12.5241C2.52607 12.2456 2.8624 12.0682 3.22764 12.0277C3.59288 11.9872 3.95991 12.0865 4.25484 12.3058L4.41761 12.4472L10.1785 18.1965V1.5C10.1785 1.11456 10.3316 0.744905 10.6042 0.472357C10.8767 0.199809 11.2464 0.0466932 11.6318 0.0466932H11.6338Z" fill="white"/>
</svg>
