<svg width="18" height="18" viewBox="0 0 18 18" fill="none" xmlns="http://www.w3.org/2000/svg">
<g clip-path="url(#clip0_26_701)">
<circle opacity="0.3" cx="9" cy="9" r="9" fill="#EB242A"/>
<path d="M9.4165 11.7407H7.54883C7.55371 11.3013 7.58789 10.9229 7.65137 10.6055C7.71973 10.2832 7.83447 9.99268 7.99561 9.73389C8.16162 9.4751 8.38135 9.21875 8.65479 8.96484C8.88428 8.75977 9.08447 8.56445 9.25537 8.37891C9.42627 8.19336 9.56055 8.00293 9.6582 7.80762C9.75586 7.60742 9.80469 7.38525 9.80469 7.14111C9.80469 6.85791 9.76074 6.62354 9.67285 6.43799C9.58984 6.24756 9.46289 6.10352 9.29199 6.00586C9.12598 5.9082 8.91602 5.85938 8.66211 5.85938C8.45215 5.85938 8.25684 5.90576 8.07617 5.99854C7.89551 6.08643 7.74658 6.22314 7.62939 6.40869C7.51709 6.59424 7.4585 6.83838 7.45361 7.14111H5.32959C5.34424 6.47217 5.49805 5.92041 5.79102 5.48584C6.08887 5.04639 6.48682 4.72168 6.98486 4.51172C7.48291 4.29688 8.04199 4.18945 8.66211 4.18945C9.3457 4.18945 9.93164 4.30176 10.4199 4.52637C10.9082 4.74609 11.2817 5.0708 11.5405 5.50049C11.7993 5.92529 11.9287 6.44287 11.9287 7.05322C11.9287 7.47803 11.8457 7.85645 11.6797 8.18848C11.5137 8.51562 11.2964 8.8208 11.0278 9.104C10.7593 9.38721 10.4639 9.68018 10.1416 9.98291C9.86328 10.2319 9.67285 10.4932 9.57031 10.7666C9.47266 11.04 9.42139 11.3647 9.4165 11.7407ZM7.3291 14.0039C7.3291 13.6914 7.43652 13.4326 7.65137 13.2275C7.86621 13.0176 8.1543 12.9126 8.51562 12.9126C8.87207 12.9126 9.15771 13.0176 9.37256 13.2275C9.59229 13.4326 9.70215 13.6914 9.70215 14.0039C9.70215 14.3066 9.59229 14.563 9.37256 14.7729C9.15771 14.9829 8.87207 15.0879 8.51562 15.0879C8.1543 15.0879 7.86621 14.9829 7.65137 14.7729C7.43652 14.563 7.3291 14.3066 7.3291 14.0039Z" fill="white"/>
</g>
<defs>
<clipPath id="clip0_26_701">
<rect width="18" height="18" fill="white"/>
</clipPath>
</defs>
</svg>
